M48
; DRILL file {KiCad (6.0.1)} date Sun Mar 24 12:18:52 2024
; FORMAT={-:-/ absolute / inch / decimal}
; #@! TF.CreationDate,2024-03-24T12:18:52+01:00
; #@! TF.GenerationSoftware,Kicad,Pcbnew,(6.0.1)
; #@! TF.FileFunction,Plated,1,2,PTH
FMAT,2
INCH
; #@! TA.AperFunction,Plated,PTH,ViaDrill
T1C0.0157
; #@! TA.AperFunction,Plated,PTH,ComponentDrill
T2C0.0250
; #@! TA.AperFunction,Plated,PTH,ComponentDrill
T3C0.0787
%
G90
G05
T1
X5.497Y-4.0522
X5.5236Y-3.7953
X5.5846Y-4.0512
X5.6201Y-3.7913
X5.6826Y-3.9178
X5.7175Y-3.7963
X5.7205Y-3.5256
X5.7736Y-4.3563
X6.0059Y-3.5551
X6.0187Y-3.6171
X6.0797Y-3.7057
X6.1004Y-4.3435
X6.126Y-4.1831
X6.1339Y-4.1516
X6.2126Y-4.2736
X6.2707Y-3.7864
X6.2982Y-3.8474
X6.311Y-4.1191
T2
X5.6063Y-3.8858
X5.6063Y-3.9358
X5.6063Y-3.9858
T3
X5.9055Y-3.4744
X5.9055Y-4.3996
T0
M30
