G04 #@! TF.GenerationSoftware,KiCad,Pcbnew,(6.0.1)*
G04 #@! TF.CreationDate,2022-03-12T10:23:07+01:00*
G04 #@! TF.ProjectId,Linterna_MT340L_V2,4c696e74-6572-46e6-915f-4d543334304c,rev?*
G04 #@! TF.SameCoordinates,Original*
G04 #@! TF.FileFunction,Soldermask,Bot*
G04 #@! TF.FilePolarity,Negative*
%FSLAX46Y46*%
G04 Gerber Fmt 4.6, Leading zero omitted, Abs format (unit mm)*
G04 Created by KiCad (PCBNEW (6.0.1)) date 2022-03-12 10:23:07*
%MOMM*%
%LPD*%
G01*
G04 APERTURE LIST*
G04 Aperture macros list*
%AMRoundRect*
0 Rectangle with rounded corners*
0 $1 Rounding radius*
0 $2 $3 $4 $5 $6 $7 $8 $9 X,Y pos of 4 corners*
0 Add a 4 corners polygon primitive as box body*
4,1,4,$2,$3,$4,$5,$6,$7,$8,$9,$2,$3,0*
0 Add four circle primitives for the rounded corners*
1,1,$1+$1,$2,$3*
1,1,$1+$1,$4,$5*
1,1,$1+$1,$6,$7*
1,1,$1+$1,$8,$9*
0 Add four rect primitives between the rounded corners*
20,1,$1+$1,$2,$3,$4,$5,0*
20,1,$1+$1,$4,$5,$6,$7,0*
20,1,$1+$1,$6,$7,$8,$9,0*
20,1,$1+$1,$8,$9,$2,$3,0*%
%AMFreePoly0*
4,1,21,3.897855,0.901855,3.912500,0.866500,3.912500,-0.866500,3.897855,-0.901855,3.862500,-0.916500,0.737500,-0.916500,0.702145,-0.901855,0.687500,-0.866500,0.687500,-0.500000,-0.737500,-0.500000,-0.772855,-0.485355,-0.787500,-0.450000,-0.787500,0.450000,-0.772855,0.485355,-0.737500,0.500000,0.687500,0.500000,0.687500,0.866500,0.702145,0.901855,0.737500,0.916500,3.862500,0.916500,
3.897855,0.901855,3.897855,0.901855,$1*%
G04 Aperture macros list end*
%ADD10C,5.040000*%
%ADD11RoundRect,0.300000X0.537500X0.425000X-0.537500X0.425000X-0.537500X-0.425000X0.537500X-0.425000X0*%
%ADD12RoundRect,0.200000X0.512500X0.150000X-0.512500X0.150000X-0.512500X-0.150000X0.512500X-0.150000X0*%
%ADD13RoundRect,0.300000X-0.450000X0.325000X-0.450000X-0.325000X0.450000X-0.325000X0.450000X0.325000X0*%
%ADD14RoundRect,0.300000X-0.325000X-0.450000X0.325000X-0.450000X0.325000X0.450000X-0.325000X0.450000X0*%
%ADD15C,10.100000*%
%ADD16O,1.243000X0.957250*%
%ADD17RoundRect,0.200000X-0.587500X-0.150000X0.587500X-0.150000X0.587500X0.150000X-0.587500X0.150000X0*%
%ADD18RoundRect,0.300000X0.337500X0.475000X-0.337500X0.475000X-0.337500X-0.475000X0.337500X-0.475000X0*%
%ADD19RoundRect,0.050000X-2.247900X0.876300X-2.247900X-0.876300X2.247900X-0.876300X2.247900X0.876300X0*%
%ADD20RoundRect,0.050000X0.650000X0.450000X-0.650000X0.450000X-0.650000X-0.450000X0.650000X-0.450000X0*%
%ADD21FreePoly0,180.000000*%
G04 APERTURE END LIST*
D10*
X150000000Y-88250000D03*
X150000000Y-111750000D03*
D11*
X151875000Y-93700000D03*
X149000000Y-93700000D03*
D12*
X158037500Y-95250000D03*
X158037500Y-96200000D03*
X158037500Y-97150000D03*
X155762500Y-97150000D03*
X155762500Y-95250000D03*
D13*
X148200000Y-106575000D03*
X148200000Y-108625000D03*
D14*
X141975000Y-104500000D03*
X144025000Y-104500000D03*
D15*
X150000000Y-100000000D03*
D13*
X150300000Y-106575000D03*
X150300000Y-108625000D03*
X152800000Y-106575000D03*
X152800000Y-108625000D03*
D14*
X156825000Y-105200000D03*
X158875000Y-105200000D03*
D16*
X142400000Y-98700000D03*
X142400000Y-99970000D03*
X142400000Y-101240000D03*
D17*
X144137500Y-108325000D03*
X144137500Y-106425000D03*
X146012500Y-107375000D03*
D18*
X156362500Y-92075000D03*
X154287500Y-92075000D03*
D19*
X158075000Y-99584000D03*
X158075000Y-102835200D03*
D20*
X146650000Y-91200000D03*
D21*
X146562500Y-92700000D03*
D20*
X146650000Y-94200000D03*
D18*
X151412500Y-91575000D03*
X149337500Y-91575000D03*
G36*
X150885693Y-109211347D02*
G01*
X150886505Y-109213175D01*
X150885930Y-109214378D01*
X150843367Y-109256941D01*
X150833903Y-109316699D01*
X150861408Y-109370681D01*
X150898602Y-109393275D01*
X150898649Y-109393361D01*
X150898921Y-109393485D01*
X150899130Y-109393596D01*
X150901266Y-109394893D01*
X150903626Y-109395640D01*
X150903851Y-109395726D01*
X150989047Y-109434462D01*
X150990210Y-109436090D01*
X150989382Y-109437910D01*
X150987483Y-109438143D01*
X150778099Y-109355242D01*
X150471826Y-109276604D01*
X150276933Y-109251984D01*
X150275340Y-109250775D01*
X150275591Y-109248791D01*
X150277184Y-109248000D01*
X150749886Y-109248000D01*
X150818987Y-109239883D01*
X150883704Y-109211136D01*
X150885693Y-109211347D01*
G37*
G36*
X149609560Y-109123883D02*
G01*
X149681659Y-109195855D01*
X149781515Y-109240002D01*
X149784089Y-109240302D01*
X149785693Y-109241496D01*
X149785462Y-109243483D01*
X149784108Y-109244273D01*
X149550475Y-109273787D01*
X149548631Y-109273012D01*
X149548380Y-109271028D01*
X149549284Y-109270038D01*
X149593517Y-109246469D01*
X149619997Y-109192057D01*
X149610216Y-109133763D01*
X149606365Y-109126206D01*
X149606470Y-109124209D01*
X149608252Y-109123301D01*
X149609560Y-109123883D01*
G37*
G36*
X149221901Y-90644758D02*
G01*
X149528174Y-90723396D01*
X149841892Y-90763027D01*
X150061022Y-90763027D01*
X150062754Y-90764027D01*
X150062754Y-90766027D01*
X150061111Y-90767025D01*
X149996067Y-90769922D01*
X149939101Y-90791277D01*
X149905752Y-90841759D01*
X149908455Y-90902478D01*
X149912815Y-90912373D01*
X149918633Y-90923792D01*
X149918528Y-90925789D01*
X149916746Y-90926697D01*
X149915438Y-90926115D01*
X149843341Y-90854145D01*
X149743485Y-90809998D01*
X149674880Y-90802000D01*
X149078189Y-90802000D01*
X149076457Y-90801000D01*
X149076457Y-90799000D01*
X149077571Y-90798098D01*
X149135727Y-90779202D01*
X149171291Y-90730253D01*
X149171291Y-90669751D01*
X149135627Y-90620664D01*
X149108563Y-90606829D01*
X149071771Y-90594768D01*
X149071547Y-90594680D01*
X148999422Y-90560971D01*
X148998276Y-90559332D01*
X148999123Y-90557520D01*
X149001005Y-90557299D01*
X149221901Y-90644758D01*
G37*
M02*
