%FSLAX45Y45*%
G04 Gerber Fmt 4.5, Leading zero omitted, Abs format (unit mm)*
G04 Created by KiCad (PCBNEW (6.0.1)) date 2022-03-12 10:23:11*
%MOMM*%
%LPD*%
G01*
G04 APERTURE LIST*
%TA.AperFunction,Profile*%
%ADD10C,0.050000*%
%TD*%
%ADD11C,0.200000*%
G04 APERTURE END LIST*
D10*
X14751305Y-8800510D02*
G75*
G03*
X14751305Y-11199490I248695J-1199490D01*
G01*
X15248695Y-8800510D02*
G75*
G03*
X14751305Y-8800510I-248695J-24490D01*
G01*
X14751305Y-11199490D02*
G75*
G03*
X15248695Y-11199490I248695J24490D01*
G01*
X15248695Y-11199490D02*
G75*
G03*
X15248695Y-8800510I-248695J1199490D01*
G01*
D11*
X14030119Y-11737874D02*
X14030119Y-11537874D01*
X14077738Y-11537874D01*
X14106309Y-11547398D01*
X14125357Y-11566445D01*
X14134881Y-11585493D01*
X14144405Y-11623588D01*
X14144405Y-11652160D01*
X14134881Y-11690255D01*
X14125357Y-11709303D01*
X14106309Y-11728350D01*
X14077738Y-11737874D01*
X14030119Y-11737874D01*
X14230119Y-11737874D02*
X14230119Y-11604541D01*
X14230119Y-11642636D02*
X14239643Y-11623588D01*
X14249167Y-11614064D01*
X14268214Y-11604541D01*
X14287262Y-11604541D01*
X14353928Y-11737874D02*
X14353928Y-11604541D01*
X14353928Y-11537874D02*
X14344405Y-11547398D01*
X14353928Y-11556922D01*
X14363452Y-11547398D01*
X14353928Y-11537874D01*
X14353928Y-11556922D01*
X14477738Y-11737874D02*
X14458690Y-11728350D01*
X14449167Y-11709303D01*
X14449167Y-11537874D01*
X14582500Y-11737874D02*
X14563452Y-11728350D01*
X14553928Y-11709303D01*
X14553928Y-11537874D01*
X14811071Y-11737874D02*
X14811071Y-11537874D01*
X14877738Y-11680731D01*
X14944405Y-11537874D01*
X14944405Y-11737874D01*
X15125357Y-11737874D02*
X15125357Y-11633112D01*
X15115833Y-11614064D01*
X15096786Y-11604541D01*
X15058690Y-11604541D01*
X15039643Y-11614064D01*
X15125357Y-11728350D02*
X15106309Y-11737874D01*
X15058690Y-11737874D01*
X15039643Y-11728350D01*
X15030119Y-11709303D01*
X15030119Y-11690255D01*
X15039643Y-11671207D01*
X15058690Y-11661684D01*
X15106309Y-11661684D01*
X15125357Y-11652160D01*
X15220595Y-11604541D02*
X15220595Y-11804541D01*
X15220595Y-11614064D02*
X15239643Y-11604541D01*
X15277738Y-11604541D01*
X15296786Y-11614064D01*
X15306309Y-11623588D01*
X15315833Y-11642636D01*
X15315833Y-11699779D01*
X15306309Y-11718826D01*
X15296786Y-11728350D01*
X15277738Y-11737874D01*
X15239643Y-11737874D01*
X15220595Y-11728350D01*
X15401548Y-11718826D02*
X15411071Y-11728350D01*
X15401548Y-11737874D01*
X15392024Y-11728350D01*
X15401548Y-11718826D01*
X15401548Y-11737874D01*
X15401548Y-11614064D02*
X15411071Y-11623588D01*
X15401548Y-11633112D01*
X15392024Y-11623588D01*
X15401548Y-11614064D01*
X15401548Y-11633112D01*
M02*
