G04 #@! TF.GenerationSoftware,KiCad,Pcbnew,(6.0.1)*
G04 #@! TF.CreationDate,2022-03-12T10:23:07+01:00*
G04 #@! TF.ProjectId,Linterna_MT340L_V2,4c696e74-6572-46e6-915f-4d543334304c,rev?*
G04 #@! TF.SameCoordinates,Original*
G04 #@! TF.FileFunction,Soldermask,Top*
G04 #@! TF.FilePolarity,Negative*
%FSLAX46Y46*%
G04 Gerber Fmt 4.6, Leading zero omitted, Abs format (unit mm)*
G04 Created by KiCad (PCBNEW (6.0.1)) date 2022-03-12 10:23:07*
%MOMM*%
%LPD*%
G01*
G04 APERTURE LIST*
G04 Aperture macros list*
%AMRoundRect*
0 Rectangle with rounded corners*
0 $1 Rounding radius*
0 $2 $3 $4 $5 $6 $7 $8 $9 X,Y pos of 4 corners*
0 Add a 4 corners polygon primitive as box body*
4,1,4,$2,$3,$4,$5,$6,$7,$8,$9,$2,$3,0*
0 Add four circle primitives for the rounded corners*
1,1,$1+$1,$2,$3*
1,1,$1+$1,$4,$5*
1,1,$1+$1,$6,$7*
1,1,$1+$1,$8,$9*
0 Add four rect primitives between the rounded corners*
20,1,$1+$1,$2,$3,$4,$5,0*
20,1,$1+$1,$4,$5,$6,$7,0*
20,1,$1+$1,$6,$7,$8,$9,0*
20,1,$1+$1,$8,$9,$2,$3,0*%
%AMFreePoly0*
4,1,329,0.087056,12.269672,0.769045,12.245857,0.771832,12.245681,1.451428,12.183833,1.454200,12.183503,2.129285,12.083815,2.132035,12.083330,2.800502,11.946113,2.803220,11.945475,3.462985,11.771158,3.465664,11.770370,4.114669,11.559495,4.117299,11.558558,4.753521,11.311784,4.756095,11.310702,5.377550,11.028797,5.380060,11.027573,5.984810,10.711418,5.987247,10.710056,6.573405,10.360635,
6.575763,10.359139,7.141503,9.977543,7.143773,9.975918,7.687329,9.563337,7.689505,9.561587,8.209182,9.119307,8.211257,9.117439,8.705435,8.646839,8.707402,8.644857,9.174541,8.147405,9.176395,8.145317,9.615036,7.622565,9.616771,7.620377,10.025548,7.073954,10.027157,7.071673,10.404794,6.503283,10.406274,6.500915,10.751594,5.912332,10.752939,5.909885,11.064864,5.302943,
11.066070,5.300425,11.343630,4.677017,11.344694,4.674435,11.587020,4.036505,11.587939,4.033869,11.794278,3.383407,11.795047,3.380722,11.964754,2.719757,11.965373,2.717035,12.097920,2.047626,12.098385,2.044873,12.193357,1.369109,12.193669,1.366334,12.250771,0.686323,12.250927,0.683535,12.269981,0.001396,12.269995,-0.000698,12.265231,-0.341900,12.265158,-0.343993,12.227065,-1.025334,
12.226831,-1.028116,12.150764,-1.706268,12.150376,-1.709033,12.036572,-2.381882,12.036029,-2.384621,11.884843,-3.050067,11.884149,-3.052772,11.696053,-3.708742,11.695209,-3.711403,11.470789,-4.355850,11.469797,-4.358461,11.209752,-4.989376,11.208617,-4.991926,10.913760,-5.607341,10.912483,-5.609825,10.583732,-6.207821,10.582319,-6.210229,10.220700,-6.788941,10.219155,-6.791267,9.825794,-7.348890,
9.824122,-7.351125,9.400248,-7.885922,9.398453,-7.888061,8.945387,-8.398362,8.943476,-8.400398,8.462630,-8.884612,8.460608,-8.886537,7.953482,-9.343155,7.951355,-9.344965,7.419531,-9.772563,7.417307,-9.774251,6.862443,-10.171494,6.860128,-10.173055,6.283955,-10.538706,6.281557,-10.540136,5.685871,-10.873054,5.683397,-10.874348,5.070055,-11.173494,5.067512,-11.174647,4.438428,-11.439090,
4.435825,-11.440100,3.792961,-11.669014,3.790305,-11.669877,3.135664,-11.862548,3.132965,-11.863261,2.468590,-12.019089,2.465854,-12.019650,1.793817,-12.138148,1.791055,-12.138556,1.113450,-12.219355,1.110670,-12.219608,0.429612,-12.262457,0.426821,-12.262555,-0.255567,-12.267319,-0.258358,-12.267260,-0.939949,-12.233925,-0.942733,-12.233711,-1.621399,-12.162380,-1.624167,-12.162011,-2.297794,-12.052907,
-2.300537,-12.052384,-2.967023,-11.905848,-2.969732,-11.905172,-3.626998,-11.721660,-3.629665,-11.720834,-4.275663,-11.500918,-4.278280,-11.499945,-4.910995,-11.244312,-4.913554,-11.243194,-5.531013,-10.952640,-5.533505,-10.951381,-6.133781,-10.626812,-6.136199,-10.625416,-6.717422,-10.267846,-6.719759,-10.266317,-7.280115,-9.876859,-7.282362,-9.875203,-7.820104,-9.455073,-7.822255,-9.453293,-8.335707,-9.003800,
-8.337756,-9.001903,-8.825315,-8.524449,-8.827255,-8.522440,-9.287403,-8.018515,-9.289227,-8.016401,-9.720526,-7.487575,-9.722230,-7.485363,-10.123338,-6.933286,-10.124915,-6.930982,-10.494579,-6.357375,-10.496026,-6.354987,-10.833095,-5.761639,-10.834406,-5.759174,-11.137827,-5.147936,-11.138998,-5.145401,-11.407826,-4.518179,-11.408854,-4.515583,-11.642250,-3.874332,-11.643131,-3.871683,-11.840368,-3.218404,
-11.841100,-3.215709,-12.001562,-2.552438,-12.002143,-2.549707,-12.125330,-1.878513,-12.125757,-1.875754,-12.211285,-1.198730,-12.211557,-1.195951,-12.259159,-0.515208,-12.259276,-0.512418,-12.263482,-0.211236,-12.263507,-0.209415,-9.227598,-0.209415,-9.194852,-0.804438,-9.123773,-1.396128,-9.014660,-1.981998,-8.867963,-2.559621,-8.684309,-3.126532,-8.464435,-3.680456,-8.209296,-4.218990,-7.919915,-4.739974,
-7.597526,-5.241184,-7.243467,-5.720541,-6.859208,-6.176057,-6.446345,-6.605835,-6.006632,-7.008053,-5.541874,-7.381060,-5.053982,-7.723321,-4.545059,-8.033359,-4.017175,-8.309917,-3.472546,-8.551833,-2.913433,-8.758100,-2.342175,-8.927857,-1.761162,-9.060393,-1.172801,-9.155160,-0.579559,-9.211760,0.016116,-9.229960,0.611706,-9.209682,1.204749,-9.151010,1.792777,-9.054191,2.373326,-8.919626,
2.943988,-8.747877,3.502375,-8.539659,4.046149,-8.295848,4.573077,-8.017442,5.080923,-7.705624,5.567590,-7.361682,6.031058,-6.987041,6.469365,-6.583292,6.880732,-6.152067,7.263393,-5.695221,7.615772,-5.214637,7.936416,-4.712294,8.223967,-4.190322,8.477235,-3.650876,8.695165,-3.096212,8.876849,-2.528630,9.021523,-1.950520,9.128589,-1.364289,9.197603,-0.772342,9.228302,-0.176626,
9.229992,-0.000561,9.210735,0.595626,9.153098,1.188784,9.057304,1.776980,8.923757,2.357749,8.753001,2.928720,8.545766,3.487450,8.302889,4.031680,8.025420,4.559064,7.714475,5.067474,7.371390,5.554730,6.997558,6.018854,6.594565,6.457873,6.164076,6.869977,5.707899,7.253434,5.227906,7.606669,4.726142,7.928178,4.204672,8.216639,3.665667,8.470850,3.111374,8.689751,
2.544129,8.872420,1.966270,9.018104,1.380196,9.126197,0.788399,9.196241,0.193305,9.227950,-0.402609,9.221188,-0.996836,9.175987,-1.586901,9.092534,-2.170353,8.971175,-2.744763,8.812417,-3.307728,8.616923,-3.856901,8.385507,-4.389992,8.119137,-4.904806,7.818906,-5.399135,7.486104,-5.870991,7.122070,-6.318355,6.728359,-6.739376,6.306603,-7.132308,5.858550,-7.495510,5.386069,
-7.827461,4.891143,-8.126785,4.375819,-8.392224,3.842264,-8.622682,3.292686,-8.817197,2.729368,-8.974948,2.154700,-9.095291,1.571020,-9.177712,0.980830,-9.221878,0.386509,-9.227598,-0.209415,-12.263507,-0.209415,-12.268804,0.169920,-12.268765,0.172712,-12.240189,0.854518,-12.239994,0.857303,-12.173403,1.536451,-12.173053,1.539221,-12.068654,2.213593,-12.068150,2.216340,-11.926270,2.883833,
-11.925614,2.886546,-11.746695,3.545078,-11.745888,3.547751,-11.530488,4.195268,-11.529533,4.197892,-11.278323,4.832376,-11.277223,4.834943,-10.990987,5.454415,-10.989745,5.456916,-10.669375,6.059444,-10.667996,6.061871,-10.314492,6.645575,-10.312980,6.647922,-9.927444,7.210984,-9.925802,7.213243,-9.509436,7.753905,-9.507672,7.756069,-9.061774,8.272646,-9.059891,8.274708,-8.585853,8.765589,
-8.583858,8.767543,-8.083157,9.231197,-8.081056,9.233036,-7.555254,9.668017,-7.553054,9.669736,-7.003791,10.074688,-7.001498,10.076281,-6.430486,10.449941,-6.428108,10.451404,-5.837128,10.792607,-5.834672,10.793935,-5.225567,11.101616,-5.223040,11.102805,-4.597710,11.376005,-4.595122,11.377051,-3.955516,11.614918,-3.952872,11.615818,-3.300985,11.817611,-3.298296,11.818362,-2.636162,11.983450,
-2.633435,11.984049,-1.963117,12.111919,-1.960361,12.112366,-1.283951,12.202619,-1.281174,12.202911,-0.600780,12.255264,-0.597991,12.255400,0.084264,12.269691,0.087056,12.269672,0.087056,12.269672,$1*%
G04 Aperture macros list end*
%ADD10RoundRect,0.300000X-0.325000X-0.450000X0.325000X-0.450000X0.325000X0.450000X-0.325000X0.450000X0*%
%ADD11RoundRect,0.050000X0.469900X0.774700X-0.469900X0.774700X-0.469900X-0.774700X0.469900X-0.774700X0*%
%ADD12RoundRect,0.050000X0.749300X1.066800X-0.749300X1.066800X-0.749300X-1.066800X0.749300X-1.066800X0*%
%ADD13RoundRect,0.299999X-1.425001X0.512501X-1.425001X-0.512501X1.425001X-0.512501X1.425001X0.512501X0*%
%ADD14RoundRect,0.050000X1.500000X-1.000000X1.500000X1.000000X-1.500000X1.000000X-1.500000X-1.000000X0*%
%ADD15RoundRect,0.300000X0.325000X0.450000X-0.325000X0.450000X-0.325000X-0.450000X0.325000X-0.450000X0*%
%ADD16RoundRect,0.200000X0.512500X0.150000X-0.512500X0.150000X-0.512500X-0.150000X0.512500X-0.150000X0*%
%ADD17RoundRect,0.300000X-0.450000X0.325000X-0.450000X-0.325000X0.450000X-0.325000X0.450000X0.325000X0*%
%ADD18RoundRect,0.200000X-0.512500X-0.150000X0.512500X-0.150000X0.512500X0.150000X-0.512500X0.150000X0*%
%ADD19C,1.624000*%
%ADD20FreePoly0,0.000000*%
%ADD21C,5.040000*%
%ADD22RoundRect,0.300000X0.337500X0.475000X-0.337500X0.475000X-0.337500X-0.475000X0.337500X-0.475000X0*%
%ADD23O,1.243000X0.957250*%
G04 APERTURE END LIST*
D10*
X149725000Y-95650000D03*
X151775000Y-95650000D03*
D11*
X149975000Y-105248500D03*
D12*
X149025000Y-107725000D03*
D11*
X148075000Y-105248500D03*
D13*
X156050000Y-97987500D03*
X156050000Y-103962500D03*
D14*
X146975000Y-93825000D03*
D10*
X149725000Y-97550000D03*
X151775000Y-97550000D03*
D15*
X156150000Y-95725000D03*
X154100000Y-95725000D03*
D16*
X152862500Y-101325000D03*
X152862500Y-100375000D03*
X152862500Y-99425000D03*
X150587500Y-99425000D03*
X150587500Y-101325000D03*
D14*
X153425000Y-106250000D03*
D17*
X147900000Y-96150000D03*
X147900000Y-98200000D03*
X146125000Y-105200000D03*
X146125000Y-107250000D03*
D18*
X144512500Y-101050000D03*
X144512500Y-102000000D03*
X144512500Y-102950000D03*
X146787500Y-102950000D03*
X146787500Y-101050000D03*
D19*
X143142000Y-108128000D03*
X156096000Y-91364000D03*
X139250000Y-100000000D03*
X142634000Y-92126000D03*
D20*
X150000000Y-100000000D03*
D19*
X160750000Y-100000000D03*
D21*
X150000000Y-88250000D03*
D19*
X157620000Y-107366000D03*
D21*
X150000000Y-111750000D03*
D22*
X152437500Y-103125000D03*
X150362500Y-103125000D03*
D23*
X142400000Y-98700000D03*
X142400000Y-99970000D03*
X142400000Y-101240000D03*
G36*
X157468868Y-104773999D02*
G01*
X157468868Y-104775999D01*
X157467465Y-104776972D01*
X157467459Y-104776973D01*
X157467130Y-104777000D01*
X154632870Y-104777000D01*
X154631138Y-104776000D01*
X154631138Y-104774000D01*
X154632870Y-104773000D01*
X157467136Y-104772999D01*
X157468868Y-104773999D01*
G37*
G36*
X157468862Y-103149000D02*
G01*
X157468862Y-103151000D01*
X157467130Y-103152000D01*
X154632864Y-103152001D01*
X154631132Y-103151001D01*
X154631132Y-103149001D01*
X154632535Y-103148028D01*
X154632541Y-103148027D01*
X154632870Y-103148000D01*
X157467130Y-103148000D01*
X157468862Y-103149000D01*
G37*
G36*
X157468868Y-98798999D02*
G01*
X157468868Y-98800999D01*
X157467465Y-98801972D01*
X157467459Y-98801973D01*
X157467130Y-98802000D01*
X154632870Y-98802000D01*
X154631138Y-98801000D01*
X154631138Y-98799000D01*
X154632870Y-98798000D01*
X157467136Y-98797999D01*
X157468868Y-98798999D01*
G37*
G36*
X157468862Y-97174000D02*
G01*
X157468862Y-97176000D01*
X157467130Y-97177000D01*
X154632864Y-97177001D01*
X154631132Y-97176001D01*
X154631132Y-97174001D01*
X154632535Y-97173028D01*
X154632541Y-97173027D01*
X154632870Y-97173000D01*
X157467130Y-97173000D01*
X157468862Y-97174000D01*
G37*
M02*
