M48
; DRILL file {KiCad (6.0.1)} date Sat Mar 12 10:23:10 2022
; FORMAT={-:-/ absolute / metric / decimal}
; #@! TF.CreationDate,2022-03-12T10:23:10+01:00
; #@! TF.GenerationSoftware,Kicad,Pcbnew,(6.0.1)
; #@! TF.FileFunction,Plated,1,2,PTH
FMAT,2
METRIC
; #@! TA.AperFunction,Plated,PTH,ViaDrill
T1C0.400
; #@! TA.AperFunction,Plated,PTH,ComponentDrill
T2C0.635
; #@! TA.AperFunction,Plated,PTH,ComponentDrill
T3C2.000
%
G90
G05
T1
X139.625Y-102.925
X140.3Y-96.4
X141.85Y-102.9
X142.75Y-96.3
X144.338Y-99.512
X145.225Y-96.425
X145.3Y-89.55
X146.65Y-110.65
X152.55Y-90.3
X152.875Y-91.875
X154.425Y-94.125
X154.95Y-110.325
X155.6Y-106.25
X155.8Y-105.45
X157.8Y-108.55
X159.275Y-96.175
X159.975Y-97.725
X160.3Y-104.625
T2
X142.4Y-98.7
X142.4Y-99.97
X142.4Y-101.24
T3
X150.0Y-88.25
X150.0Y-111.75
T0
M30
